<?xml version="1.0" encoding="UTF-8" standalone="no"?>
<svg
   id="Calque_1"
   viewBox="0 0 797.62 207.09"
   version="1.1"
   sodipodi:docname="logo.svg"
   inkscape:export-filename="logo.png"
   inkscape:export-xdpi="96"
   inkscape:export-ydpi="96"
   inkscape:version="1.4 (1:1.4+202410161351+e7c3feb100)"
   width="797.62"
   height="207.09"
   xmlns:inkscape="http://www.inkscape.org/namespaces/inkscape"
   xmlns:sodipodi="http://sodipodi.sourceforge.net/DTD/sodipodi-0.dtd"
   xmlns="http://www.w3.org/2000/svg"
   xmlns:svg="http://www.w3.org/2000/svg">
  <sodipodi:namedview
     id="namedview48"
     pagecolor="#ffffff"
     bordercolor="#000000"
     borderopacity="0.25"
     inkscape:showpageshadow="2"
     inkscape:pageopacity="0.0"
     inkscape:pagecheckerboard="0"
     inkscape:deskcolor="#d1d1d1"
     inkscape:zoom="0.80363118"
     inkscape:cx="288.06747"
     inkscape:cy="16.798751"
     inkscape:window-width="1920"
     inkscape:window-height="1043"
     inkscape:window-x="0"
     inkscape:window-y="0"
     inkscape:window-maximized="1"
     inkscape:current-layer="Calque_1" />
  <defs
     id="defs7">
    <rect
       x="392.59302"
       y="225.22771"
       width="157.09943"
       height="17.420927"
       id="rect50" />
    <rect
       x="428.67923"
       y="184.47517"
       width="236.73796"
       height="63.461948"
       id="rect49" />
    <style
       id="style1">.cls-1{fill:#003a5a;}.cls-2{fill:#30a1db;}.cls-3{fill:#9d9d9c;}.cls-4{fill:#29235c;}.cls-5{fill:url(#Dégradé_sans_nom_13);}.cls-6{fill:#1d71b8;}.cls-7{fill:#616263;}</style>
    <linearGradient
       id="Dégradé_sans_nom_13"
       x1="0"
       y1="143.21001"
       x2="240.47"
       y2="143.21001"
       gradientUnits="userSpaceOnUse">
      <stop
         offset="0"
         stop-color="#30a1db"
         id="stop1" />
      <stop
         offset=".19"
         stop-color="#2f9dd7"
         id="stop2" />
      <stop
         offset=".36"
         stop-color="#2f91cb"
         id="stop3" />
      <stop
         offset=".54"
         stop-color="#2e7eb8"
         id="stop4" />
      <stop
         offset=".71"
         stop-color="#2c649d"
         id="stop5" />
      <stop
         offset=".87"
         stop-color="#2a427b"
         id="stop6" />
      <stop
         offset="1"
         stop-color="#29235c"
         id="stop7" />
    </linearGradient>
    <filter
       style="color-interpolation-filters:sRGB"
       inkscape:label="Drop Shadow"
       id="filter82"
       x="-0.013278584"
       y="-0.14286781"
       width="1.0321989"
       height="1.3432267">
      <feFlood
         result="flood"
         in="SourceGraphic"
         flood-opacity="0.698039"
         flood-color="rgb(0,0,0)"
         id="feFlood81" />
      <feGaussianBlur
         result="blur"
         in="SourceGraphic"
         stdDeviation="1.000000"
         id="feGaussianBlur81" />
      <feOffset
         result="offset"
         in="blur"
         dx="1.019699"
         dy="0.965778"
         id="feOffset81" />
      <feComposite
         result="comp1"
         operator="in"
         in="flood"
         in2="offset"
         id="feComposite81" />
      <feComposite
         result="comp2"
         operator="over"
         in="SourceGraphic"
         in2="comp1"
         id="feComposite82" />
    </filter>
  </defs>
  <path
     class="cls-1"
     d="m 353.44,155.96 2.34,4.72 h -23.17 l -2.34,-4.72 z m 0.41,9.4 -1.56,4.72 h -14.96 c -0.68,0 -1.18,0.16 -1.51,0.49 -0.33,0.33 -0.55,0.73 -0.68,1.21 -0.13,0.47 -0.18,0.98 -0.17,1.53 0.01,0.54 0.02,1.04 0.02,1.49 v 4.72 h -4.72 v -7.07 c 0,-0.97 0.19,-1.89 0.56,-2.75 0.37,-0.86 0.88,-1.61 1.51,-2.24 0.63,-0.63 1.38,-1.14 2.24,-1.51 0.86,-0.37 1.78,-0.56 2.75,-0.56 h 16.52 z"
     id="path7" />
  <path
     class="cls-1"
     d="m 378.34,174.79 -2.37,4.72 H 359.52 V 156 h 4.72 v 18.79 h 14.11 z"
     id="path8" />
  <path
     class="cls-1"
     d="m 403.92,155.96 2.34,4.72 h -23.71 l -2.34,-4.72 z m -16.66,14.15 c -0.66,0 -1.21,0.23 -1.66,0.68 -0.45,0.45 -0.68,1 -0.68,1.65 v 2.36 h 19 l 2.34,4.72 h -26.05 v -7.06 c 0,-0.97 0.19,-1.89 0.56,-2.75 0.37,-0.86 0.88,-1.61 1.51,-2.24 0.63,-0.63 1.38,-1.14 2.24,-1.51 0.86,-0.37 1.78,-0.56 2.75,-0.56 h 16.66 l 2.34,4.72 h -19 z"
     id="path9" />
  <path
     class="cls-1"
     d="m 433.09,155.96 2.34,4.72 h -23.71 l -2.34,-4.72 z m -16.66,14.15 c -0.66,0 -1.21,0.23 -1.66,0.68 -0.45,0.45 -0.68,1 -0.68,1.65 v 2.36 h 19 l 2.34,4.72 h -26.05 v -7.06 c 0,-0.97 0.19,-1.89 0.56,-2.75 0.37,-0.86 0.88,-1.61 1.51,-2.24 0.63,-0.63 1.38,-1.14 2.24,-1.51 0.86,-0.37 1.78,-0.56 2.75,-0.56 h 16.66 l 2.34,4.72 h -19 z"
     id="path10" />
  <path
     class="cls-1"
     d="m 436.86,155.96 h 18.9 l 2.34,4.72 h -7.94 v 18.83 h -4.72 v -18.83 h -6.21 z"
     id="path11" />
  <path
     class="cls-1"
     d="m 500.5,179.5 h -17.64 c -0.97,0 -1.89,-0.19 -2.75,-0.56 -0.86,-0.37 -1.61,-0.88 -2.24,-1.51 -0.63,-0.63 -1.14,-1.38 -1.51,-2.24 -0.37,-0.86 -0.56,-1.78 -0.56,-2.75 v -9.4 c 0,-0.97 0.19,-1.89 0.56,-2.75 0.37,-0.86 0.88,-1.61 1.51,-2.26 0.63,-0.64 1.38,-1.15 2.24,-1.53 0.86,-0.37 1.78,-0.56 2.75,-0.56 h 15.3 l 2.34,4.72 h -17.64 c -0.66,0 -1.21,0.23 -1.66,0.69 -0.45,0.46 -0.68,1.02 -0.68,1.67 v 9.38 c 0,0.65 0.23,1.21 0.68,1.67 0.45,0.46 1.01,0.69 1.66,0.69 h 15.3 l 2.34,4.72 z"
     id="path12" />
  <path
     class="cls-1"
     d="m 524.11,155.96 c 0.97,0 1.89,0.19 2.75,0.56 0.86,0.37 1.61,0.88 2.24,1.51 0.63,0.63 1.14,1.38 1.51,2.24 0.37,0.86 0.56,1.78 0.56,2.75 v 9.43 c 0,0.97 -0.19,1.89 -0.56,2.75 -0.37,0.86 -0.88,1.61 -1.51,2.24 -0.63,0.63 -1.38,1.14 -2.24,1.51 -0.86,0.37 -1.78,0.56 -2.75,0.56 h -12.72 c -0.97,0 -1.89,-0.19 -2.75,-0.56 -0.86,-0.37 -1.61,-0.88 -2.24,-1.51 -0.63,-0.63 -1.14,-1.38 -1.51,-2.24 -0.37,-0.86 -0.56,-1.78 -0.56,-2.75 v -9.43 c 0,-0.97 0.19,-1.89 0.56,-2.75 0.37,-0.86 0.88,-1.61 1.51,-2.24 0.63,-0.63 1.38,-1.14 2.24,-1.51 0.86,-0.37 1.78,-0.56 2.75,-0.56 z m 2.34,7.06 c 0,-0.66 -0.23,-1.21 -0.68,-1.66 -0.45,-0.45 -1.01,-0.68 -1.66,-0.68 h -12.72 c -0.66,0 -1.21,0.23 -1.66,0.68 -0.45,0.45 -0.68,1.01 -0.68,1.66 v 9.43 c 0,0.66 0.23,1.21 0.68,1.66 0.45,0.45 1.01,0.68 1.66,0.68 h 12.72 c 0.66,0 1.21,-0.23 1.66,-0.68 0.45,-0.45 0.68,-1 0.68,-1.66 z"
     id="path13" />
  <path
     class="cls-1"
     d="m 562.27,163.49 -11.09,13.77 -11.09,-13.77 v 16.01 h -4.72 v -23.54 h 4.72 l 11.09,13.81 11.09,-13.81 h 4.72 v 23.54 h -4.72 z"
     id="path14" />
  <path
     class="cls-1"
     d="m 599.05,163.49 -11.09,13.77 -11.09,-13.77 v 16.01 h -4.72 v -23.54 h 4.72 l 11.09,13.81 11.09,-13.81 h 4.72 v 23.54 h -4.72 z"
     id="path15" />
  <path
     class="cls-1"
     d="m 628.8,155.96 c 0.97,0 1.89,0.19 2.75,0.56 0.86,0.37 1.61,0.88 2.24,1.51 0.63,0.63 1.14,1.38 1.51,2.24 0.37,0.86 0.56,1.78 0.56,2.75 v 16.49 h -4.72 v -7.09 h -13.77 l -2.34,-4.72 h 16.11 v -4.69 c 0,-0.65 -0.23,-1.2 -0.68,-1.65 -0.45,-0.45 -1.01,-0.68 -1.66,-0.68 h -12.82 c -0.66,0 -1.21,0.23 -1.66,0.68 -0.45,0.45 -0.68,1.01 -0.68,1.66 v 16.49 h -4.72 v -16.49 c 0,-0.97 0.19,-1.89 0.56,-2.75 0.37,-0.86 0.88,-1.61 1.51,-2.24 0.63,-0.63 1.38,-1.14 2.24,-1.51 0.86,-0.37 1.78,-0.56 2.75,-0.56 z"
     id="path16" />
  <path
     class="cls-1"
     d="m 654.72,155.99 h 11.77 v 23.51 h -4.72 l -16.45,-16.79 v 16.79 h -4.72 v -23.51 h 4.72 l 16.45,16.72 V 160.7 h -4.72 l -2.34,-4.72 z"
     id="path17" />
  <path
     class="cls-1"
     d="m 698.58,172.45 c 0,0.97 -0.19,1.89 -0.56,2.75 -0.37,0.86 -0.88,1.61 -1.51,2.24 -0.63,0.63 -1.38,1.14 -2.24,1.51 -0.86,0.37 -1.78,0.56 -2.75,0.56 h -19.85 v -17.03 h 4.72 v 12.31 h 15.13 c 0.66,0 1.21,-0.23 1.66,-0.69 0.45,-0.46 0.68,-1.02 0.68,-1.67 v -9.38 c 0,-0.68 -0.16,-1.18 -0.47,-1.52 -0.32,-0.34 -0.71,-0.57 -1.19,-0.69 -0.47,-0.12 -0.98,-0.18 -1.53,-0.17 -0.55,0.01 -1.05,0.02 -1.53,0.02 h -15.1 l -2.38,-4.72 h 19.85 c 0.97,0 1.89,0.19 2.75,0.56 0.86,0.37 1.61,0.88 2.24,1.53 0.63,0.64 1.14,1.4 1.51,2.26 0.37,0.86 0.56,1.78 0.56,2.75 v 9.4 z"
     id="path18" />
  <path
     class="cls-1"
     d="m 726.13,155.96 2.34,4.72 h -23.71 l -2.34,-4.72 z m -16.66,14.15 c -0.66,0 -1.21,0.23 -1.66,0.68 -0.45,0.45 -0.68,1 -0.68,1.65 v 2.36 h 19 l 2.34,4.72 h -26.05 v -7.06 c 0,-0.97 0.19,-1.89 0.56,-2.75 0.37,-0.86 0.88,-1.61 1.51,-2.24 0.63,-0.63 1.38,-1.14 2.24,-1.51 0.86,-0.37 1.78,-0.56 2.75,-0.56 h 16.66 l 2.34,4.72 h -19 z"
     id="path19" />
  <path
     class="cls-1"
     d="m 757,163.02 c 0,0.97 -0.19,1.89 -0.56,2.75 -0.37,0.86 -0.88,1.61 -1.51,2.26 -0.63,0.64 -1.38,1.15 -2.24,1.53 -0.86,0.37 -1.78,0.56 -2.75,0.56 l 7.06,9.4 h -5.9 l -7.06,-9.4 h -5.39 c -0.66,0 -1.21,0.23 -1.66,0.68 -0.45,0.45 -0.68,1.01 -0.68,1.66 v 7.06 h -4.72 v -7.06 c 0,-0.97 0.19,-1.89 0.56,-2.75 0.37,-0.86 0.88,-1.61 1.51,-2.24 0.63,-0.63 1.38,-1.14 2.24,-1.51 0.86,-0.37 1.78,-0.56 2.75,-0.56 h 11.3 c 0.66,0 1.21,-0.23 1.66,-0.69 0.45,-0.46 0.68,-1.02 0.68,-1.68 0,-0.66 -0.23,-1.21 -0.68,-1.66 -0.45,-0.45 -1,-0.68 -1.66,-0.68 h -16.01 l -2.34,-4.72 h 18.35 c 0.97,0 1.89,0.19 2.75,0.56 0.86,0.37 1.61,0.88 2.24,1.51 0.63,0.63 1.14,1.38 1.51,2.24 0.37,0.86 0.56,1.78 0.56,2.75 z"
     id="path20" />
  <path
     class="cls-6"
     d="m 174.59,76.71 c -0.06,10.5 -0.36,21.11 -0.77,31.75 -1.91,0.64 -3.95,1.05 -6.19,1.3 -0.61,-11.19 -1.11,-22.16 -1.3,-32.52 2.85,-0.19 5.64,-0.39 8.26,-0.52 z"
     id="path21" />
  <path
     class="cls-6"
     d="m 174.59,67.42 c -2.71,0.39 -5.5,0.8 -8.34,1.22 0,-10.83 0.41,-20.86 1.49,-29.62 2.07,0.88 4.09,1.77 6.08,2.6 0.52,8.51 0.75,17.1 0.77,25.81 z"
     id="path22" />
  <path
     class="cls-6"
     d="m 171.97,161.08 c -2.07,0.72 -4.23,1.44 -6.41,2.13 -1.08,-8.7 -1.71,-17.3 -0.17,-25.56 2.38,-0.61 4.42,-0.44 6.71,-0.08 1.19,5.69 0.64,14.42 -0.14,23.51 z"
     id="path23" />
  <path
     class="cls-6"
     d="m 153.84,125.83 c -17.16,3.04 -37.82,4.59 -60.06,5.5 v -6.63 c 22.38,-2.43 43.07,-4.37 59.82,-5.3 1.22,2.51 0.97,4.61 0.25,6.44 z"
     id="path24" />
  <path
     class="cls-6"
     d="m 149.09,31.2 c -11.24,12.52 -27.05,28.04 -44.48,44.7 -1.82,-0.44 -4.17,-1.35 -5.72,-3.29 15.58,-16.47 30.47,-31.55 44.01,-43.96 2.04,0.8 4.12,1.66 6.19,2.54 z"
     id="path25" />
  <path
     class="cls-6"
     d="m 132.85,24.57 c -17.9,7.71 -29.23,12.52 -35.53,15.58 0.03,-3.7 0.06,-7.18 0.06,-10.08 9.01,-3.81 17.68,-7.05 25.81,-9.28 3.04,1.16 6.27,2.43 9.67,3.79 z"
     id="path26" />
  <path
     class="cls-6"
     d="M 88.12,70.35 C 74.94,69.13 60.55,67.23 45.41,64.91 c -1.38,-0.22 -2.79,-0.44 -4.2,-0.66 0.11,-0.97 0.3,-1.93 0.64,-2.87 0.39,-1.11 0.94,-2.18 1.74,-3.12 15.94,1.6 30.89,3.48 44.26,5.86 0.11,2.18 0.28,4.25 0.28,6.24 z"
     id="path27" />
  <path
     class="cls-6"
     d="m 73.31,96.71 c -1.52,1.66 -3.12,3.04 -4.89,3.95 -0.14,0.08 -0.28,0.14 -0.41,0.19 C 59.58,93.2 50.6,82.89 41.32,71.18 c -0.17,-0.94 -0.28,-1.69 -0.28,-2.27 -0.03,-1.35 -0.06,-2.98 0.17,-4.67 0.11,-0.97 0.3,-1.93 0.64,-2.87 1.22,1.19 2.4,2.38 3.56,3.54 10.94,10.97 20.58,21.63 27.9,31.8 z"
     id="path28" />
  <path
     class="cls-6"
     d="m 217.42,123.51 c -2.02,-0.66 -6.16,-3.98 -10.03,-7.38 -4.25,-4.7 -8.12,-9.06 -11.24,-12.79 -0.3,-2.54 0.8,-5.11 2.74,-6.88 5.8,4.81 11.88,11.77 18.07,19.7 1.49,4.53 1.93,7.82 0.47,7.35 z"
     id="path29" />
  <path
     class="cls-2"
     d="m 226.45,79.14 c 5.61,-4.89 14.81,-15.33 -1.27,-24.4 C 209.13,45.71 195.4,50.84 186.64,23.08 177.91,-4.71 169.48,-0.96 157.16,4.65 144.81,10.29 144.67,15.18 129.53,14.98 114.39,14.79 108.48,-5.05 90.66,1.22 79.58,5.12 77.87,28.35 68.83,34.15 59.77,39.92 32,48.19 30.73,60.98 c -1.24,12.82 12.96,30.92 8.59,45.59 -2.87,9.64 -34.34,42.49 -35.59,53.79 -1.24,11.44 8.29,-35.72 64.54,0.36 6.77,4.34 7.96,21.99 11.66,31.66 3.7,9.7 11.52,10.17 19.48,7.52 7.96,-2.65 17.46,-15.61 30.58,-11.88 13.1,3.76 24.04,17.65 35.72,15.91 11.71,-1.71 15.47,-20.11 19.06,-29.48 3.56,-9.37 4.67,-14.84 33.54,-21.85 28.87,-7.02 5.72,-30.12 2.38,-37.3 -3.32,-7.18 0.11,-31.28 5.75,-36.17 z M 42.34,122.98 c -2.35,-1.74 -1.99,-6.44 0,-8.65 1.99,-2.24 8.12,-8.62 10.89,-5.03 2.79,3.62 -0.72,7.02 -2.1,8.65 -1.41,1.63 -6.44,6.8 -8.79,5.03 z m 12.87,25.86 c -8.79,-3.37 -5.39,-6.3 0.94,-8.43 6.3,-2.1 20.11,-5.25 26.44,-2.57 6.33,2.71 4.48,17.49 0,18.51 -4.67,1.05 -18.59,-4.12 -27.38,-7.51 z m 1.52,-28.18 19.2,-18.15 c 2.51,-2.4 6.44,-3.18 9.12,0 2.71,3.15 0.11,16.02 -2.68,20.83 -2.82,4.81 -10.89,5.03 -21.77,5.03 -10.88,0 -3.87,-7.71 -3.87,-7.71 z m 29.95,54.18 c -1.44,3.98 -2.57,2.68 -5.36,-1.05 -2.82,-3.76 -0.94,-7.71 2.43,-7.43 3.54,0.3 4.34,4.5 2.93,8.48 z M 83.94,82.73 c -3.79,4.39 -6.96,9.97 -10.64,13.98 -1.52,1.66 -3.12,3.04 -4.89,3.95 -0.14,0.08 -0.28,0.14 -0.41,0.19 C 62.03,103.86 55.48,105.3 51.7,99.8 48.27,94.83 42.64,78.33 41.31,71.18 41.14,70.24 41.03,69.49 41.03,68.91 41,67.56 40.97,65.93 41.2,64.24 c 0.11,-0.97 0.3,-1.93 0.64,-2.87 0.39,-1.11 0.94,-2.18 1.74,-3.12 1.71,-2.07 4.61,-3.51 9.39,-3.51 H 78.5 c 0,0 8.87,0.17 9.26,7.85 0.03,0.52 0.06,1.02 0.08,1.52 0.11,2.18 0.28,4.25 0.28,6.24 0,4.37 -0.77,8.4 -4.17,12.38 z M 82.23,41.48 c -3.81,-1.08 -4.12,-5.06 -3.43,-8.56 0.72,-3.59 4.84,-10.86 6.8,-10.86 1.96,0 3.51,6.16 3.73,10.53 0.25,4.7 -3.26,10 -7.1,8.9 z m 94.46,-19.42 c 3.29,-1.02 6.55,7.65 7.02,13.04 0.47,5.39 -5.19,6.22 -7.02,0 -2.18,-7.51 -3.26,-12.02 0,-13.04 z m -18.59,1.22 c 5.14,-3.81 11.11,-9.95 10.64,1.52 -0.47,11.47 0.47,10.47 -7.02,7.05 -7.49,-3.43 -10.06,-3.84 -3.62,-8.56 z m -7.74,-8.07 c 7.6,-1.19 2.68,3.15 0.58,5.14 -2.1,1.99 -3.15,6.44 -9.95,2.93 -3.92,-2.04 1.77,-6.91 9.37,-8.07 z m -47.74,-0.72 c 1.66,-0.5 9.7,2.15 20.56,6.3 3.04,1.16 6.27,2.43 9.67,3.79 3.26,1.3 6.63,2.65 10.06,4.09 2.04,0.8 4.12,1.66 6.19,2.54 6.27,2.6 12.63,5.28 18.65,7.82 2.07,0.88 4.09,1.77 6.08,2.6 16.02,6.88 28.4,12.35 28.4,12.35 0,0 8.32,5.47 0.69,8.29 -3.29,1.22 -14.59,3.12 -28.32,5.17 -2.71,0.39 -5.5,0.8 -8.34,1.22 -27.08,3.81 -58.85,7.65 -58.85,7.65 0,0 -1.22,0 -2.79,-0.39 -1.82,-0.44 -4.17,-1.35 -5.72,-3.29 -1.02,-1.24 -1.69,-2.96 -1.69,-5.22 0.03,-4.61 0.08,-16.74 0.11,-27.24 0.03,-3.7 0.06,-7.18 0.06,-10.08 0.03,-4.56 0.06,-7.63 0.06,-7.63 0,0 -0.91,-6.08 5.19,-7.96 z m 84.49,83.33 c -4.25,5.88 -8.29,9.01 -13.29,10.64 -1.91,0.64 -3.95,1.05 -6.19,1.3 -1.57,0.22 -3.23,0.33 -5.03,0.41 -11.08,0.47 -32.44,-13.73 -41.8,-17.32 -9.37,-3.56 -6.71,-10.47 0,-11.08 0,0 24.67,-3.01 45.53,-4.53 2.85,-0.19 5.64,-0.39 8.26,-0.52 10.08,-0.5 18.04,-0.44 19.86,0.83 5.77,4.06 -0.33,10.61 -7.35,20.28 z m -80.21,88.74 c -2.43,-3.76 14.04,-14.39 16.47,-10.61 1.93,3.04 -14.06,14.34 -16.47,10.61 z m 7.38,-18.62 c -1.63,1.63 -3.2,3.18 -4.64,4.64 -3.76,3.7 -6.74,6.71 -8.4,8.43 -8.21,8.51 -7.46,0.64 -7.46,0.64 V 98.93 c 0,-4.23 3.29,-6.71 9.53,-5.94 6.24,0.8 36.83,13.59 45.42,20.78 2.51,2.07 4.01,3.95 4.86,5.64 1.22,2.51 0.97,4.61 0.25,6.44 -0.41,1.16 -0.99,2.21 -1.52,3.2 -1.35,2.6 -22.99,23.95 -38.04,38.9 z m 42.3,22.13 c -6.33,2.68 -12.87,-3.18 -16.16,-7.85 -3.29,-4.7 8.59,-7.49 18.84,-9.15 7.32,-1.16 3.62,14.28 -2.68,16.99 z m 17.1,-8.84 c -5.91,-0.52 -0.97,-14.34 3.84,-16.52 5.25,-2.43 2.1,17.05 -3.84,16.52 z m 18.43,-28.15 c -2.29,1.44 -10.53,4.72 -20.14,8.01 -2.07,0.72 -4.23,1.44 -6.41,2.13 -14.84,4.78 -30.64,8.68 -32.6,5.77 -3.59,-5.3 3.43,-11.24 18.7,-23.24 6.38,-5.03 10.39,-7.27 13.73,-8.1 2.38,-0.61 4.42,-0.44 6.71,-0.08 2.16,0.39 4.53,0.97 7.68,1.33 13.21,1.6 18.57,10.28 12.32,14.17 z m 20.14,-17.24 c -2.51,3.51 -19.04,2.4 -33.71,-2.74 -14.67,-5.14 -10.31,-5.14 0,-17.3 10.28,-12.16 12.93,-4.56 16.16,-1.41 0,0 20.03,17.93 17.54,21.44 z m 5.17,-12.32 c -2.02,-0.66 -6.16,-3.98 -10.03,-7.38 -4.59,-4.01 -8.81,-8.12 -8.81,-8.12 -1.49,-1.41 -2.24,-3.04 -2.43,-4.67 -0.3,-2.54 0.8,-5.11 2.74,-6.88 1.13,-1.05 2.54,-1.82 4.14,-2.16 4.06,-0.86 11,12.9 13.92,21.85 1.49,4.53 1.93,7.82 0.47,7.35 z M 209.6,90.01 c -5.39,-3.4 7.65,-21.33 10.28,-19.67 3.54,2.21 -4.92,23.04 -10.28,19.67 z"
     id="path30" />
  <path
     class="cls-6"
     d="m 114.28,167.94 c -1.63,1.63 -3.2,3.18 -4.64,4.64 l -15.86,-5.75 v -6.33 l 20.5,7.43 z"
     id="path31" />
  <g
     id="g1076">
    <path
       id="path1078"
       class="cls-7"
       d="m 376.81,44.03 h 31.74 l 19.51,32.8 19.51,-32.8 h 31.74 v 93.33 H 449 V 91.1 l -20.94,33.2 h -0.52 L 406.6,91.1 v 46.26 h -29.79 z" />
  </g>
  <path
     id="path1080"
     class="cls-7"
     d="m 494.38,44.03 h 30.44 v 93.33 h -30.44 z" />
  <g
     id="g1090">
    <path
       id="path1092"
       class="cls-7"
       d="m 532.65,121.63 16.26,-19.87 c 9.89,7.73 21.2,10.93 31.87,10.93 5.46,0 7.8,-1.46 7.8,-4 v -0.27 c 0,-2.66 -2.86,-4.13 -12.62,-6.13 -20.42,-4.27 -38.37,-10.27 -38.37,-30 v -0.27 c 0,-17.73 13.53,-31.47 38.63,-31.47 17.56,0 30.57,4.27 41.11,12.8 L 602.5,74.41 c -8.59,-6.4 -18.86,-9.2 -27.32,-9.2 -4.55,0 -6.63,1.6 -6.63,3.87 v 0.27 c 0,2.53 2.47,4.13 12.09,6 23.29,4.4 38.89,11.33 38.89,30.13 v 0.27 c 0,19.6 -15.74,31.6 -40.19,31.6 -18.47,0 -35.12,-5.33 -46.7,-15.73" />
  </g>
  <g
     id="g1094">
    <path
       id="path1096"
       class="cls-7"
       d="m 628.77,42.3 h 40.97 c 24.2,0 40.72,11.07 40.72,33.2 v 0.27 c 0,22.53 -16.78,34.53 -41.37,34.53 h -9.89 v 25.33 H 628.76 V 42.3 Z m 38.63,45.73 c 7.8,0 13.01,-3.6 13.01,-10.27 v -0.27 c 0,-6.8 -4.81,-10.27 -12.88,-10.27 h -8.33 v 20.8 h 8.2 z" />
  </g>
  <polygon
     class="cls-2"
     points="321.02,156.26 290.16,156.23 292.2,163.33 321.02,163.33 "
     id="polygon31" />
  <polygon
     class="cls-2"
     points="292.65,164.88 294.46,171.16 321.02,171.16 321.02,164.88 "
     id="polygon32" />
  <polygon
     class="cls-2"
     points="296.78,179.24 321.02,179.24 321.02,172.72 294.9,172.72 "
     id="polygon33" />
  <polygon
     class="cls-2"
     points="766.76,156.26 797.62,156.23 795.58,163.33 766.76,163.33 "
     id="polygon34" />
  <polygon
     class="cls-2"
     points="795.13,164.88 793.33,171.16 766.76,171.16 766.76,164.88 "
     id="polygon35" />
  <polygon
     class="cls-2"
     points="791,179.24 766.76,179.24 766.76,172.72 792.88,172.72 "
     id="polygon36" />
  <path
     class="cls-6"
     d="m 312.46,50.45 c -1.67,-0.13 -3.35,-0.16 -5.06,-0.09 -10.4,0.49 -21.27,4.95 -32.87,15.47 0.11,0.7 0.23,1.39 0.44,2.11 0.42,1.8 1.16,3.55 2.11,5.24 1.66,2.86 3.91,5.22 6.51,6.97 6.61,-2.01 12.35,-4.64 17.17,-7.98 4.85,-3.33 8.74,-7.31 11.73,-11.99 0.98,-1.52 1.83,-3.09 2.6,-4.75 0.5,-1.09 0.97,-2.23 1.38,-3.41 0.16,-0.34 0.26,-0.7 0.39,-1.05 -1.48,-0.26 -2.93,-0.45 -4.4,-0.54 z"
     id="path36" />
  <path
     class="cls-4"
     d="m 279.15,81.36 c -0.46,0.12 -0.92,0.24 -1.38,0.33 -1.27,0.32 -2.57,0.56 -3.87,0.84 -2.29,-2.91 -4.35,-5.81 -5.33,-8.45 1.05,-1.17 2.13,-2.29 3.2,-3.35 0.18,0.68 0.44,1.33 0.73,1.99 0.29,0.83 0.69,1.61 1.16,2.4 1.45,2.52 3.31,4.61 5.49,6.25 z"
     id="path37" />
  <path
     class="cls-6"
     d="m 271.77,70.72 c -1.07,1.06 -2.15,2.19 -3.2,3.35 -0.23,-0.58 -0.43,-1.19 -0.53,-1.75 1.09,-1.19 2.18,-2.35 3.28,-3.41 0.13,0.6 0.26,1.2 0.46,1.81 z"
     id="path38" />
  <path
     class="cls-6"
     d="m 285.45,53.1 c -0.57,0.34 -1.13,0.65 -1.7,0.98 -3.86,2.32 -7.18,4.81 -9.79,7.56 -2.37,-2.08 -5.21,-3.22 -8.55,-3.44 -0.63,-0.08 -1.27,-0.09 -1.95,-0.07 7.3,-6.65 14.63,-7.58 21.99,-5.03 z"
     id="path39" />
  <path
     class="cls-6"
     d="m 299.47,77.53 -0.06,0.36 c -0.15,0.68 -0.31,1.37 -0.52,2 -4.28,2.42 -8.4,4.26 -12.34,5.35 -0.01,-0.51 -0.06,-1.02 -0.17,-1.52 0,-0.2 -0.03,-0.38 -0.07,-0.59 4.2,-1.01 8.61,-2.97 13.17,-5.61 z"
     id="path40" />
  <path
     class="cls-4"
     d="m 298.89,79.89 c -1.87,6.33 -6.18,11.21 -14.26,13.87 -0.18,0.07 -0.36,0.14 -0.58,0.2 0.47,-0.76 0.87,-1.47 1.17,-2.23 V 91.7 c 0.99,-2.12 1.41,-4.28 1.32,-6.46 3.95,-1.09 8.06,-2.93 12.34,-5.35 z"
     id="path41" />
  <path
     class="cls-4"
     d="m 316.47,52.04 c -0.41,1.18 -0.88,2.31 -1.38,3.41 -0.77,1.66 -1.62,3.23 -2.6,4.75 -2.99,4.68 -6.88,8.65 -11.73,11.99 -4.82,3.34 -10.56,5.97 -17.17,7.98 -2.6,-1.75 -4.85,-4.11 -6.51,-6.97 -0.95,-1.69 -1.69,-3.44 -2.11,-5.24 12.35,-10.93 23.93,-15.57 35.01,-16.07 1.88,-0.11 3.73,-0.08 5.57,0.07 0.3,0.02 0.6,0.04 0.93,0.1 z"
     id="path42" />
  <path
     class="cls-4"
     d="m 283.75,54.08 c -3.86,2.32 -7.18,4.81 -9.79,7.56 -2.37,-2.08 -5.21,-3.22 -8.55,-3.44 6.08,-4.53 12.21,-5.54 18.35,-4.12 z"
     id="path43" />
  <path
     class="cls-6"
     d="m 293.46,59.42 c 2.22,-1.26 5.02,-0.5 6.29,1.69 0.08,0.12 0.16,0.23 0.17,0.37 v 0.03 c 1,2.14 0.21,4.7 -1.86,5.89 -2.22,1.26 -5.02,0.5 -6.29,-1.69 -0.18,-0.3 -0.32,-0.67 -0.4,-0.98 -0.62,-2 0.21,-4.22 2.09,-5.31 z"
     id="path44" />
  <path
     class="cls-2"
     d="m 298.06,67.41 c -2.22,1.26 -5.02,0.5 -6.29,-1.69 -0.18,-0.3 -0.32,-0.67 -0.4,-0.98 0.12,-1.6 1,-3.14 2.51,-4.02 1.99,-1.13 4.46,-0.76 6.05,0.77 v 0.03 c 1,2.14 0.21,4.7 -1.86,5.89 z"
     id="path45" />
  <path
     class="cls-3"
     d="m 252.17,85.25 c 0.87,-0.77 3.58,-2.75 6.48,-3.83 2.9,-1.08 5.53,-2.24 5.86,-1.7 0.33,0.54 -3.61,3.17 -3.34,3.52 0.27,0.35 3.53,-1.63 3.64,-1.33 0.11,0.3 -0.51,0.54 -0.41,0.72 0.1,0.18 1.61,-0.27 1.78,0.14 0.17,0.41 -4.23,2.58 -4.18,2.77 0.05,0.19 1.03,-0.21 1.09,0.03 0.06,0.24 -2.61,1.68 -2.49,1.81 0.12,0.13 0.92,-0.09 0.96,0.13 0.04,0.22 -5.79,2.76 -6.67,3.33 -0.88,0.57 -4.34,3.27 -4.5,3.06 -0.16,-0.21 0.32,-0.85 0.19,-0.96 -0.13,-0.11 -7.03,4.04 -7.59,2.93 -0.56,-1.11 2.12,-2 2.1,-2.45 -0.02,-0.45 -1.97,0.07 -2.2,-0.58 -0.23,-0.64 4.8,-3.6 4.64,-4.01 -0.16,-0.41 -1.66,0.48 -1.91,0.1 -0.25,-0.38 6.55,-3.68 6.55,-3.68 z"
     id="path46" />
  <path
     class="cls-3"
     d="m 256.25,81.18 c 0,0 -4.49,-9.5 -5.58,-10.33 -0.48,-0.93 -1.34,-1.79 -1.71,-1.94 -0.54,-1.1 -1.69,-3.57 -2.24,-3.62 -0.55,-0.05 0.35,1.98 0.22,2.06 -0.13,0.08 -0.89,-1.36 -1.12,-1.01 -0.14,0.2 0.11,6.84 3.1,14.18 2.99,7.34 8.4,16.28 8.68,16.17 0.28,-0.11 -0.6,-1.51 -0.42,-1.61 0.18,-0.1 6.77,9.1 7.83,8.74 0.95,0.73 1.43,1.48 1.08,0.24 -0.35,-1.24 -4.47,-13.1 -5.25,-14.01 0.45,2.34 3.62,10.32 3.05,10.63 -0.57,0.31 -7.68,-9.3 -11.03,-15.52 -3.35,-6.22 -5.5,-14.55 -4.54,-14.9 0.96,-0.34 7.91,10.92 7.91,10.92 z"
     id="path47" />
  <path
     class="cls-5"
     d="m 6.29,153.71 c -11.95,21.83 -6.94,35.73 15.68,37.92 40.15,3.89 188.99,-66.6 218.5,-96.99 -53.64,12.68 -192.72,109.67 -229.38,90.58 -16.41,-8.54 -5.9,-24.76 -5.9,-24.76 z"
     id="path48"
     style="fill:url(#D%C3%A9grad%C3%A9_sans_nom_13)" />
  <g
     id="g50"
     transform="matrix(1.1783638,0,0,1.1783638,-75.335342,-32.659683)"
     style="filter:url(#filter82)">
    <rect
       style="fill:#003a5a;fill-opacity:1;stroke:none;stroke-width:0.497609;stroke-linejoin:round;stroke-opacity:1"
       id="rect48"
       width="180.74216"
       height="16.798746"
       x="434.90097"
       y="184.21553"
       rx="0"
       ry="3.5468469" />
    <text
       xml:space="preserve"
       id="text50"
       style="font-style:normal;font-variant:normal;font-weight:bold;font-stretch:normal;font-size:9.18937px;font-family:'DejaVu Sans';-inkscape-font-specification:'DejaVu Sans Bold';text-align:start;writing-mode:lr-tb;direction:ltr;white-space:pre-wrap;shape-inside:url(#rect48);display:inline;fill:#ffffff;fill-opacity:1;stroke:none;stroke-linejoin:round;stroke-opacity:1"
       x="75.857918"
       y="0"
       transform="matrix(1.3313776,0,0,1.3313776,-173.67176,-59.500171)"><tspan
         x="459.97181"
         y="192.34528"
         id="tspan2"><tspan
           style="font-weight:normal;font-family:Sephora;-inkscape-font-specification:'Sephora, Normal';text-align:center;text-anchor:middle"
           id="tspan1">Browser Extension</tspan></tspan></text>
  </g>
</svg>
